<svg width="18" height="12" viewBox="0 0 18 12" fill="none" xmlns="http://www.w3.org/2000/svg">
<path fill-rule="evenodd" clip-rule="evenodd" d="M10.16 5.99301V5.63901C10.15 4.23501 10.07 2.98199 9.92004 2.18799C9.92004 2.17299 9.76003 1.38599 9.66003 1.12399C9.50003 0.744993 9.20998 0.422994 8.84998 0.218994C8.55998 0.0739941 8.25994 0 7.93994 0C7.68994 0.012 7.27999 0.137004 6.98999 0.242004L6.73999 0.335999C5.12999 0.977999 2.03998 3.07699 0.849976 4.35999L0.76001 4.45001L0.380005 4.87C0.130005 5.191 0 5.585 0 6.008C0 6.387 0.119976 6.76599 0.349976 7.07199C0.419976 7.17099 0.530005 7.29801 0.630005 7.40601L1.01001 7.80301C2.31001 9.12401 5.12998 10.978 6.59998 11.592C6.59998 11.606 7.50994 11.986 7.93994 12H8C8.66 12 9.27998 11.621 9.59998 11.009C9.68998 10.841 9.76997 10.513 9.83997 10.225L9.94995 9.681C10.08 8.807 10.16 7.46501 10.16 5.99301ZM16.5 7.51801C17.33 7.51801 18 6.839 18 6C18 5.162 17.33 4.483 16.5 4.483L12.8 4.81C12.15 4.81 11.62 5.342 11.62 6C11.62 6.658 12.15 7.19101 12.8 7.19101L16.5 7.51801Z" fill="white"/>
</svg>
