<svg width="28" height="28" viewBox="0 0 28 28" fill="none" xmlns="http://www.w3.org/2000/svg">
<path d="M12.2499 18.0835L11.0833 14.0002" stroke="white" stroke-linecap="round"/>
<path d="M9.91658 5.25L7.58325 8.75M18.0832 5.25L20.4166 8.75" stroke="white" stroke-linecap="round"/>
<path d="M15.75 18.0835L16.9167 14.0002" stroke="white" stroke-linecap="round"/>
<path d="M5.25 11.0835V11.0835C5.93167 11.0835 6.52188 11.5569 6.66975 12.2224L8.05394 18.4512C8.38763 19.9528 8.55448 20.7037 9.10289 21.1436C9.6513 21.5835 10.4204 21.5835 11.9587 21.5835H16.0413C17.5796 21.5835 18.3487 21.5835 18.8971 21.1436C19.4455 20.7037 19.6124 19.9528 19.9461 18.4512L21.3302 12.2224C21.4781 11.5569 22.0683 11.0835 22.75 11.0835V11.0835" stroke="white" stroke-linecap="round"/>
<path d="M22.7499 11.0833H5.24992C4.60559 11.0833 4.08325 10.561 4.08325 9.91667C4.08325 9.27233 4.60559 8.75 5.24992 8.75H22.7499C23.3942 8.75 23.9166 9.27233 23.9166 9.91667C23.9166 10.561 23.3942 11.0833 22.7499 11.0833Z" stroke="white" stroke-linecap="round"/>
</svg>
