<svg width="27" height="21" viewBox="0 0 27 21" fill="none" xmlns="http://www.w3.org/2000/svg">
<path d="M13.1796 20.2348C10.9649 20.2335 8.75722 19.9843 6.59788 19.4919C6.23355 19.4108 5.90809 19.2071 5.67589 18.9149C5.44369 18.6226 5.31882 18.2596 5.32213 17.8863V11.0841C1.19651 10.5713 0.0782575 6.45794 0.00213247 4.80856C-0.0136831 4.47106 0.0586878 4.13526 0.212117 3.83423C0.365547 3.5332 0.594743 3.27733 0.877132 3.09181C2.29105 2.15199 3.75376 1.28773 5.25913 0.502689C5.95402 0.210933 6.69405 0.0413177 7.44663 0.00131431C7.57179 -0.00562635 7.69694 0.0149836 7.81326 0.0616895L8.09063 0.171939C11.4472 1.15495 15.0192 1.12634 18.3596 0.0896892C18.4708 0.0441892 18.5898 0.0196889 18.7096 0.0188139H18.7306C19.5166 0.0368035 20.2942 0.184631 21.0319 0.456314C21.0695 0.469653 21.106 0.485739 21.1413 0.504439C22.6235 1.29369 24.0638 2.15819 25.455 3.09794C25.7355 3.28434 25.9628 3.54039 26.1147 3.84102C26.2665 4.14164 26.3377 4.47654 26.3213 4.81294C26.2058 6.85606 24.9475 10.5879 21.08 11.0797V17.8881C21.081 18.2603 20.9546 18.6216 20.7219 18.912C20.4892 19.2025 20.1642 19.4047 19.8008 19.4849C17.629 19.9819 15.4083 20.2331 13.1805 20.2348H13.1796ZM7.07213 17.8041C11.1074 18.7139 15.2949 18.7115 19.3291 17.7971V10.2554C19.3291 10.0234 19.4213 9.80081 19.5854 9.63672C19.7495 9.47263 19.9721 9.38044 20.2041 9.38044C24.2624 9.38044 24.5616 4.90656 24.5739 4.71581C24.5736 4.68364 24.5654 4.65202 24.55 4.62378C24.5346 4.59553 24.5124 4.57154 24.4855 4.55394C23.1583 3.65821 21.7856 2.83169 20.373 2.07769C20.062 1.9671 19.7416 1.88509 19.4158 1.83269C19.3808 1.88781 19.3423 1.94206 19.3003 1.99369L14.5578 7.85619C14.3989 8.05255 14.1994 8.2122 13.973 8.32417C13.7466 8.43614 13.4987 8.49778 13.2462 8.50485C12.9937 8.51191 12.7427 8.46424 12.5104 8.36511C12.2781 8.26598 12.07 8.11774 11.9004 7.93056L6.58038 2.05931C6.54078 2.01572 6.5034 1.97016 6.46838 1.92281C6.30574 1.96908 6.14568 2.02399 5.98888 2.08731C4.5657 2.83783 3.18143 3.65993 1.84138 4.55044C1.81168 4.56858 1.78745 4.59443 1.77127 4.62525C1.75509 4.65606 1.74757 4.69069 1.74951 4.72544C1.74951 4.77444 2.07588 9.38569 6.19451 9.38569C6.42657 9.38569 6.64913 9.47788 6.81323 9.64197C6.97732 9.80606 7.06951 10.0286 7.06951 10.2607L7.07213 17.8041ZM7.55513 1.83181L12.5488 7.34256C12.6335 7.4361 12.7375 7.51019 12.8536 7.55975C12.9697 7.6093 13.0952 7.63316 13.2213 7.62966C13.3475 7.62617 13.4714 7.59542 13.5846 7.53952C13.6978 7.48362 13.7975 7.40389 13.877 7.30581L18.2039 1.95781C17.7462 2.08169 17.2842 2.1888 16.8188 2.27894L13.1963 6.75544L9.08638 2.21856C8.57096 2.11033 8.06013 1.98131 7.55513 1.83181Z" fill="white"/>
</svg>
