<svg width="20" height="22" viewBox="0 0 20 22" fill="none" xmlns="http://www.w3.org/2000/svg">
<path d="M9.67449 22C4.34009 22 0 17.6599 0 12.325C0 8.91085 1.74547 5.81514 4.66968 4.04471C4.81855 3.95454 4.98373 3.89457 5.15579 3.86823C5.32784 3.84189 5.5034 3.8497 5.67243 3.8912C5.84147 3.93271 6.00067 4.00711 6.14095 4.11014C6.28124 4.21318 6.39985 4.34283 6.49003 4.49171C6.58021 4.64059 6.64018 4.80577 6.66651 4.97782C6.69285 5.14987 6.68505 5.32543 6.64354 5.49446C6.60203 5.6635 6.52764 5.8227 6.4246 5.96299C6.32157 6.10327 6.19191 6.22189 6.04303 6.31206C3.91898 7.59805 2.65102 9.84645 2.65102 12.325C2.65102 16.1983 5.80174 19.349 9.67495 19.349C13.5482 19.349 16.6984 16.1983 16.6984 12.325C16.6984 9.80577 15.3376 7.46446 13.1451 6.21638C12.9907 6.13196 12.8546 6.01764 12.7449 5.88009C12.6351 5.74254 12.5539 5.5845 12.5059 5.41521C12.4578 5.24592 12.444 5.06876 12.4652 4.89407C12.4864 4.71938 12.5421 4.55066 12.6292 4.39774C12.7163 4.24483 12.8329 4.11079 12.9724 4.00344C13.1118 3.89609 13.2712 3.81758 13.4413 3.7725C13.6114 3.72742 13.7888 3.71666 13.9631 3.74086C14.1374 3.76505 14.3051 3.82372 14.4565 3.91343C15.9408 4.76034 17.175 5.98433 18.0342 7.4615C18.8934 8.93868 19.3471 10.6166 19.3494 12.3255C19.349 17.6599 15.0098 22 9.67449 22ZM9.57372 12.1928C8.84197 12.1928 7.95583 11.5993 7.95583 10.8676V1.32528C7.95583 0.593533 8.84197 0 9.57372 0C10.3055 0 11.1916 0.593533 11.1916 1.32528V10.8676C11.1916 11.5993 10.3055 12.1928 9.57372 12.1928Z" fill="white"/>
</svg>
