<svg width="17" height="16" viewBox="0 0 17 16" fill="none" xmlns="http://www.w3.org/2000/svg">
<path opacity="0.4" d="M6.46914 11.6611H1.20668C0.540649 11.6611 0 12.2585 0 12.9943C0 13.7292 0.540649 14.3275 1.20668 14.3275H6.46914C7.13516 14.3275 7.67585 13.7292 7.67585 12.9943C7.67585 12.2585 7.13516 11.6611 6.46914 11.6611Z" fill="white"/>
<path opacity="0.4" d="M16.0063 3.04072C16.0063 2.30584 15.4656 1.7085 14.8004 1.7085H9.53801C8.87199 1.7085 8.3313 2.30584 8.3313 3.04072C8.3313 3.77658 8.87199 4.37392 9.53801 4.37392H14.8004C15.4656 4.37392 16.0063 3.77658 16.0063 3.04072Z" fill="white"/>
<path d="M5.50432 3.04071C5.50432 4.72072 4.27274 6.08241 2.75216 6.08241C1.23247 6.08241 0 4.72072 0 3.04071C0 1.36169 1.23247 0 2.75216 0C4.27274 0 5.50432 1.36169 5.50432 3.04071Z" fill="white"/>
<path d="M16.0063 12.9591C16.0063 14.6382 14.7747 15.9999 13.2541 15.9999C11.7344 15.9999 10.502 14.6382 10.502 12.9591C10.502 11.2791 11.7344 9.91748 13.2541 9.91748C14.7747 9.91748 16.0063 11.2791 16.0063 12.9591Z" fill="white"/>
</svg>
