<svg width="17" height="23" viewBox="0 0 17 23" fill="none" xmlns="http://www.w3.org/2000/svg">
<path d="M16.8 14C16.8 16.2278 15.915 18.3644 14.3397 19.9397C12.7644 21.515 10.6278 22.4 8.4 22.4C6.17218 22.4 4.03561 21.515 2.4603 19.9397C0.884997 18.3644 0 16.2278 0 14C0.000857129 12.3631 0.480143 10.7622 1.3789 9.3942C2.27766 8.02617 3.55669 6.95067 5.05867 6.3L5.3872 6.55573L6.832 7.6776C5.41771 8.02657 4.16073 8.83844 3.26101 9.98408C2.36128 11.1297 1.87047 12.5433 1.86667 14C1.86667 17.6027 4.79733 20.5333 8.4 20.5333C12.0027 20.5333 14.9333 17.6027 14.9333 14C14.9295 12.5433 14.4387 11.1297 13.539 9.98408C12.6393 8.83844 11.3823 8.02657 9.968 7.6776L11.7413 6.3C13.2433 6.95067 14.5223 8.02617 15.4211 9.3942C16.3199 10.7622 16.7991 12.3631 16.8 14ZM8.4 6.53333L13.0667 2.90267L11.2 0H5.6L3.73333 2.90267L6.53333 5.08107L8.4 6.53333Z" fill="white"/>
</svg>
