<svg width="24" height="12" viewBox="0 0 24 12" fill="none" xmlns="http://www.w3.org/2000/svg">
<path d="M1.10406 5.91255C1.08786 5.95915 1.07681 6.00738 1.0711 6.05638L0.752353 8.79166C0.708279 9.17307 0.816148 9.55651 1.05262 9.859C1.2891 10.1615 1.63516 10.3587 2.01594 10.408L2.03422 10.4106L2.12255 10.4252L2.4594 10.4778C2.75094 10.5227 3.17018 10.5878 3.68435 10.6639C5.00088 10.8597 6.31942 11.0418 7.63975 11.2101C10.6445 11.5912 14.177 11.9524 15.9994 11.8108C18.0549 11.6554 19.6755 11.2017 20.789 10.7822C21.3461 10.5718 21.7763 10.3713 22.0717 10.2195C22.2183 10.1445 22.3624 10.0649 22.504 9.98071L22.524 9.96828C22.9226 9.74416 23.2438 9.50625 23.4763 9.22753C23.7078 8.9565 23.8527 8.62224 23.8921 8.26799L23.9688 7.61002C23.9744 7.56115 23.9744 7.51255 23.9699 7.46487C24.0167 7.18368 24.0039 6.89582 23.9325 6.61986C23.8611 6.34389 23.7327 6.08596 23.5555 5.86269C22.9572 5.23277 22.0069 5.34734 21.1661 5.44944C20.769 5.53374 20.3592 5.53907 19.96 5.46514L18.7722 4.8213L18.7759 4.8184C18.922 4.70277 19.0163 4.53383 19.0378 4.34874C19.0594 4.16365 19.0066 3.97757 18.8909 3.83144C18.7753 3.68531 18.6064 3.5911 18.4213 3.56953C18.2362 3.54796 18.0501 3.6008 17.904 3.71643L17.428 4.09303L16.4656 3.5712C16.5474 3.42952 16.5773 3.26371 16.5499 3.10239C16.5226 2.94108 16.4398 2.79436 16.3158 2.68755C16.1919 2.58075 16.0345 2.52055 15.8709 2.51735C15.7074 2.51414 15.5478 2.56813 15.4197 2.67L15.1689 2.86847L14.3745 2.43815C14.5136 2.31785 14.6001 2.14777 14.6152 1.96444C14.6303 1.78111 14.573 1.59915 14.4554 1.45766C14.3379 1.31616 14.1695 1.22641 13.9865 1.20767C13.8035 1.18894 13.6205 1.24272 13.4767 1.35747L13.0312 1.70999L12.4169 1.37688C12.3221 1.32391 12.2573 1.28302 12.2023 1.24803C11.951 1.07413 11.6574 0.971283 11.3524 0.950344L10.8632 0.892861C10.6417 0.871308 10.4182 0.901523 10.2103 0.981122L10.0235 0.744986C8.91286 0.0153468 7.44365 0.617268 7.11756 1.85401L5.09989 1.59888C5.12012 1.41812 5.10442 1.23515 5.05371 1.06047C5.00299 0.885802 4.91826 0.722874 4.80438 0.581053C4.69049 0.439232 4.54971 0.321315 4.39011 0.234078C4.23051 0.14684 4.05524 0.0920018 3.87438 0.0727148C3.32674 0.00983464 2.7765 0.166591 2.34422 0.508639C1.91194 0.850688 1.63286 1.35014 1.56813 1.89756L1.10406 5.91255ZM9.88083 6.801L9.57308 6.40882C8.86722 5.51675 7.84825 4.9407 6.72664 4.79571L2.63972 4.27848L2.89753 2.05391C2.90899 1.95386 2.94166 1.85739 2.99337 1.77097C3.04508 1.68455 3.11463 1.61015 3.19738 1.55275C3.28013 1.49535 3.37418 1.45627 3.47324 1.43811C3.5723 1.41995 3.67409 1.42313 3.77182 1.44745C3.73068 1.80874 3.83424 2.17163 4.05988 2.45679C4.28551 2.74194 4.61486 2.92618 4.97593 2.96921L9.14492 3.46075C9.51503 3.497 9.88478 3.38832 10.1764 3.15756C10.468 2.9268 10.6588 2.59195 10.7087 2.22342L11.1974 2.28038C11.301 2.27975 11.4017 2.31397 11.4834 2.37753L11.4891 2.38154C11.5631 2.42875 11.6532 2.48546 11.7783 2.5529L11.8894 2.61348L11.394 3.00544C11.0896 3.24626 11.0382 3.68804 11.279 3.9924C11.3957 4.13687 11.5645 4.22983 11.749 4.25133C11.9335 4.27283 12.1191 4.22116 12.2659 4.10741L13.2336 3.34176L14.0271 3.77197L13.6151 4.09791C13.3108 4.33873 13.2593 4.78051 13.5001 5.08486C13.6169 5.22934 13.7856 5.3223 13.9701 5.3438C14.1546 5.3653 14.3402 5.31363 14.4871 5.19987L15.3713 4.50025L16.2862 4.99652L15.7735 5.40218C15.4691 5.64301 15.4177 6.08478 15.6585 6.38914C15.7789 6.54131 15.9498 6.62792 16.1284 6.64873C16.307 6.66954 16.4891 6.61931 16.6454 6.50415L17.6304 5.7248L19.3236 6.64284C19.9632 6.88697 20.6616 6.93266 21.3276 6.77396L21.33 6.77376C21.7214 6.72601 22.4487 6.63689 22.5802 6.77606C22.6034 6.80545 22.6456 6.91802 22.6306 7.16875C21.6451 7.76631 20.5916 8.24405 19.4928 8.59182C17.479 9.21936 15.0482 9.42675 12.9753 8.03097L12.974 8.03033C12.2383 7.53731 11.1501 7.1466 9.99865 6.83236C9.95941 6.8218 9.92013 6.81135 9.88083 6.801ZM2.18587 9.08066C2.16026 9.07502 2.1374 9.06071 2.12113 9.04015C2.10486 9.01959 2.0962 8.99405 2.09659 8.96784L2.34099 6.86651C3.59771 7.00023 4.85033 7.17003 6.0973 7.3757C7.2829 7.57245 8.53719 7.82151 9.64572 8.12361C10.7709 8.4305 11.6814 8.77574 12.2276 9.1414C12.3125 9.1988 12.3986 9.25442 12.4859 9.30822L2.18774 9.08087L2.18587 9.08066Z" fill="white"/>
</svg>
