<svg width="30" height="30" viewBox="0 0 30 30" fill="none" xmlns="http://www.w3.org/2000/svg">
    <circle cx="15" cy="15" r="15" fill="black"/>
    <path fill-rule="evenodd" clip-rule="evenodd" d="M15.8788 15.0015H17.6779C17.9507 15.0015 18.1651 14.776 18.1651 14.504C18.1651 14.2254 17.9507 14.0065 17.6779 14.0065H15.8788C15.606 14.0065 15.3917 14.2254 15.3917 14.504C15.3917 14.776 15.606 15.0015 15.8788 15.0015ZM19.8148 11.5529C20.211 11.5529 20.4708 11.6922 20.7306 11.9973C20.9904 12.3024 21.0358 12.7402 20.9774 13.1376L20.3603 17.489C20.2435 18.3255 19.542 18.9417 18.7171 18.9417H11.6312C10.7673 18.9417 10.0529 18.2657 9.98144 17.3902L9.3839 10.1592L8.40317 9.98674C8.14337 9.94031 7.96151 9.68161 8.00698 9.41628C8.05244 9.14498 8.30575 8.96522 8.57204 9.00568L10.1211 9.24381C10.3419 9.28428 10.5043 9.46934 10.5238 9.69488L10.6472 11.1807C10.6667 11.3937 10.8355 11.5529 11.0434 11.5529H19.8148ZM11.5271 19.9901C10.9815 19.9901 10.5399 20.4412 10.5399 20.9983C10.5399 21.549 10.9815 22 11.5271 22C12.0662 22 12.5078 21.549 12.5078 20.9983C12.5078 20.4412 12.0662 19.9901 11.5271 19.9901ZM18.8339 19.9901C18.2883 19.9901 17.8467 20.4412 17.8467 20.9983C17.8467 21.549 18.2883 22 18.8339 22C19.373 22 19.8147 21.549 19.8147 20.9983C19.8147 20.4412 19.373 19.9901 18.8339 19.9901Z" fill="white"/>
</svg>
