<svg width="30" height="30" viewBox="0 0 30 30" fill="none" xmlns="http://www.w3.org/2000/svg">
    <circle cx="15" cy="15" r="15" fill="black"/>
    <path d="M13.3128 21.2024V19.2153C13.3128 18.7077 13.7269 18.2962 14.2378 18.2962H16.1066C16.3516 18.2962 16.5869 18.3931 16.7605 18.5653C16.934 18.7376 17.0315 18.9716 17.0315 19.2153V21.2024C17.0302 21.4137 17.1134 21.6165 17.2629 21.766C17.4131 21.9155 17.6166 22 17.8291 22H19.1038C19.6992 22.0013 20.2705 21.7679 20.6918 21.3506C21.1136 20.9333 21.3502 20.3665 21.3502 19.7757V14.1134C21.3502 13.6356 21.137 13.1832 20.7685 12.8771L16.4322 9.43917C15.6782 8.83661 14.5972 8.85611 13.8653 9.48532L9.62857 12.8771C9.24246 13.1741 9.0117 13.6285 9 14.1134V19.7698C9 21.0016 10.0056 22 11.2464 22H12.4919C12.9332 22 13.292 21.6464 13.2953 21.2083L13.3128 21.2024Z" fill="white"/>
</svg>
