<?xml version="1.0" standalone="no"?>
<!DOCTYPE svg PUBLIC "-//W3C//DTD SVG 20010904//EN"
 "http://www.w3.org/TR/2001/REC-SVG-20010904/DTD/svg10.dtd">
<svg version="1.0" xmlns="http://www.w3.org/2000/svg"
 width="24.000000pt" height="24.000000pt" viewBox="0 0 24.000000 24.000000"
 preserveAspectRatio="xMidYMid meet">

<g transform="translate(0.000000,24.000000) scale(0.100000,-0.100000)"
fill="#000000" stroke="none">
<path d="M0 120 l0 -120 120 0 120 0 0 120 0 120 -120 0 -120 0 0 -120z m150
95 c7 -8 21 -15 31 -15 13 0 20 -9 23 -32 24 -155 22 -158 -84 -158 -106 0
-108 3 -84 158 3 23 10 32 23 32 10 0 24 7 31 15 7 8 20 15 30 15 10 0 23 -7
30 -15z"/>
<path d="M105 210 c-3 -5 3 -10 15 -10 12 0 18 5 15 10 -3 6 -10 10 -15 10 -5
0 -12 -4 -15 -10z"/>
<path d="M45 114 c-9 -90 -6 -94 75 -94 81 0 84 4 75 94 l-7 76 -68 0 -68 0
-7 -76z m55 26 c0 -5 9 -10 20 -10 11 0 20 5 20 10 0 6 4 10 10 10 14 0 1 -27
-16 -34 -8 -3 -20 -3 -28 0 -17 7 -30 34 -16 34 6 0 10 -4 10 -10z"/>
</g>
</svg>
