<svg width="10" height="10" viewBox="0 0 10 10" fill="none" xmlns="http://www.w3.org/2000/svg">
    <path d="M5.72083 1.46248L6.45416 2.92914C6.55416 3.13331 6.82083 3.32914 7.04583 3.36664L8.37499 3.58748C9.22499 3.72914 9.42499 4.34581 8.81249 4.95414L7.77916 5.98748C7.60416 6.16248 7.50833 6.49998 7.56249 6.74164L7.85833 8.02081C8.09166 9.03331 7.55416 9.42498 6.65833 8.89581L5.41249 8.15831C5.18749 8.02498 4.81666 8.02498 4.58749 8.15831L3.34166 8.89581C2.44999 9.42498 1.90833 9.02914 2.14166 8.02081L2.43749 6.74164C2.49166 6.49998 2.39583 6.16248 2.22083 5.98748L1.18749 4.95414C0.579159 4.34581 0.774993 3.72914 1.62499 3.58748L2.95416 3.36664C3.17499 3.32914 3.44166 3.13331 3.54166 2.92914L4.27499 1.46248C4.67499 0.666642 5.32499 0.666642 5.72083 1.46248Z" fill="#222B45" stroke="#222B45" stroke-width="1.5" stroke-linecap="round" stroke-linejoin="round"/>
</svg>
