<svg width="26" height="25" viewBox="0 0 26 25" fill="none" xmlns="http://www.w3.org/2000/svg">
<path d="M12.75 20.8162L12.625 20.9486L12.4875 20.8162C6.55 15.1118 2.625 11.3398 2.625 7.51476C2.625 4.8677 4.5 2.88241 7 2.88241C8.925 2.88241 10.8 4.20594 11.4625 6.00594H13.7875C14.45 4.20594 16.325 2.88241 18.25 2.88241C20.75 2.88241 22.625 4.8677 22.625 7.51476C22.625 11.3398 18.7 15.1118 12.75 20.8162ZM18.25 0.235352C16.075 0.235352 13.9875 1.30741 12.625 2.98829C11.2625 1.30741 9.175 0.235352 7 0.235352C3.15 0.235352 0.125 3.42506 0.125 7.51476C0.125 12.5045 4.375 16.5942 10.8125 22.7751L12.625 24.5221L14.4375 22.7751C20.875 16.5942 25.125 12.5045 25.125 7.51476C25.125 3.42506 22.1 0.235352 18.25 0.235352Z" fill="white"/>
</svg>
