<svg width="21" height="28" viewBox="0 0 21 28" fill="none" xmlns="http://www.w3.org/2000/svg">
<path d="M20.4027 27.2574H17.9721V24.6839C17.9721 23.6601 17.588 22.6782 16.9043 21.9542C16.2206 21.2303 15.2932 20.8236 14.3263 20.8236H7.03464C6.06771 20.8236 5.14037 21.2303 4.45665 21.9542C3.77292 22.6782 3.38881 23.6601 3.38881 24.6839V27.2574H0.958252V24.6839C0.958252 22.9775 1.59844 21.3411 2.73799 20.1345C3.87753 18.9279 5.42308 18.2501 7.03464 18.2501H14.3263C15.9379 18.2501 17.4834 18.9279 18.623 20.1345C19.7625 21.3411 20.4027 22.9775 20.4027 24.6839V27.2574ZM10.6805 15.6765C9.72292 15.6765 8.77474 15.4768 7.89007 15.0888C7.00541 14.7008 6.20158 14.1321 5.52449 13.4152C4.84739 12.6983 4.31029 11.8472 3.94385 10.9105C3.57741 9.97378 3.38881 8.96982 3.38881 7.95594C3.38881 6.94206 3.57741 5.9381 3.94385 5.0014C4.31029 4.06469 4.84739 3.21358 5.52449 2.49666C6.20158 1.77974 7.00541 1.21104 7.89007 0.823046C8.77474 0.43505 9.72292 0.235352 10.6805 0.235352C12.6143 0.235352 14.469 1.04877 15.8365 2.49666C17.2039 3.94455 17.9721 5.90831 17.9721 7.95594C17.9721 10.0036 17.2039 11.9673 15.8365 13.4152C14.469 14.8631 12.6143 15.6765 10.6805 15.6765ZM10.6805 13.103C11.9697 13.103 13.2062 12.5607 14.1178 11.5955C15.0294 10.6302 15.5416 9.32102 15.5416 7.95594C15.5416 6.59086 15.0294 5.28168 14.1178 4.31642C13.2062 3.35116 11.9697 2.80888 10.6805 2.80888C9.39123 2.80888 8.15478 3.35116 7.24315 4.31642C6.33151 5.28168 5.81936 6.59086 5.81936 7.95594C5.81936 9.32102 6.33151 10.6302 7.24315 11.5955C8.15478 12.5607 9.39123 13.103 10.6805 13.103Z" fill="white"/>
</svg>
