<svg width="24" height="27" viewBox="0 0 24 27" fill="none" xmlns="http://www.w3.org/2000/svg">
<path d="M10.0572 0.954379C10.5776 0.490026 11.2362 0.235352 11.9167 0.235352C12.5972 0.235352 13.2558 0.490026 13.7762 0.954379L22.4325 8.68324C23.0826 9.2644 23.4584 10.1185 23.4584 11.0187V24.3297C23.4584 24.9599 23.2219 25.5643 22.8011 26.01C22.3802 26.4556 21.8094 26.7059 21.2142 26.7059H16.7257C16.1305 26.7059 15.5597 26.4556 15.1388 26.01C14.718 25.5643 14.4815 24.9599 14.4815 24.3297V16.8616C14.4815 16.7715 14.4477 16.6852 14.3876 16.6215C14.3275 16.5579 14.2459 16.5221 14.1609 16.5221H9.67248C9.58745 16.5221 9.5059 16.5579 9.44578 16.6215C9.38565 16.6852 9.35188 16.7715 9.35188 16.8616V24.3297C9.35188 24.9599 9.11543 25.5643 8.69456 26.01C8.27369 26.4556 7.70286 26.7059 7.10766 26.7059H2.61922C2.3245 26.7059 2.03267 26.6445 1.76039 26.5251C1.48811 26.4056 1.24071 26.2306 1.03232 26.01C0.823922 25.7893 0.658614 25.5274 0.545831 25.2391C0.433049 24.9508 0.375 24.6418 0.375 24.3297V11.0187C0.375 10.1185 0.750746 9.2644 1.40093 8.68324L10.0572 0.954379ZM12.5361 2.51183C12.3627 2.35728 12.1433 2.27253 11.9167 2.27253C11.69 2.27253 11.4707 2.35728 11.2973 2.51183L2.64102 10.2393C2.5339 10.3348 2.44776 10.4539 2.38862 10.5883C2.32948 10.7227 2.29876 10.8691 2.29862 11.0174V24.3284C2.29862 24.5157 2.44225 24.6678 2.61922 24.6678H7.10766C7.19269 24.6678 7.27423 24.632 7.33436 24.5684C7.39448 24.5047 7.42826 24.4184 7.42826 24.3284V16.8602C7.42826 15.5472 8.43367 14.484 9.67248 14.484H14.1609C15.3997 14.484 16.4051 15.5472 16.4051 16.8602V24.3284C16.4051 24.5157 16.5488 24.6678 16.7257 24.6678H21.2142C21.2992 24.6678 21.3808 24.632 21.4409 24.5684C21.501 24.5047 21.5348 24.4184 21.5348 24.3284V11.0187C21.5346 10.8705 21.5039 10.724 21.4448 10.5897C21.3856 10.4553 21.2995 10.3362 21.1924 10.2407L12.5361 2.51183Z" fill="white"/>
</svg>
