<svg width="134" height="71" viewBox="0 0 134 71" fill="none" xmlns="http://www.w3.org/2000/svg">
<path d="M120 26.5288C118.405 26.5288 114.987 27.1789 111.379 29.4358C108.681 31.1238 107.5 34.3168 107.5 37.4994V44.0288M120 26.5288C123.678 26.5288 126.918 28.0319 129.258 29.656C131.565 31.2564 132.5 34.0662 132.5 36.8734V44.0288M120 26.5288V46.0288M120 46.0288C118.333 46.3621 113.5 46.4288 107.5 44.0288M120 46.0288C123.833 45.6955 131.7 44.8288 132.5 44.0288M107.5 44.0288V54.1199C107.5 55.056 107.592 55.993 107.892 56.8798C109.138 60.5666 112.347 66.0288 118 66.0288H120.86C122.275 66.0288 123.692 65.8049 124.961 65.1761C128.24 63.5502 132.5 60.4655 132.5 56.5288V44.0288" stroke="#222222" stroke-width="3"/>
<path d="M120 26.5286C120 23.1952 117.148 16 111.5 7.52856C110.333 5.77827 107.303 2.57281 103.615 2.06777C102.551 1.922 101.452 2.19012 100.651 2.90497C99.9775 3.50497 99.2344 4.40699 98.5813 5.67772C96.8751 8.99734 96.4752 12.8281 95.4301 16.4112L90.3698 33.761C90.1245 34.602 90.0472 35.3978 89.6735 36.19V36.19C88.4323 38.8217 85.1902 38.9164 83.7582 36.3835C83.5281 35.9765 83.2763 35.5261 83 35.0288C82.7499 34.4035 82.4059 33.5574 82.0307 32.578C79.5541 26.1133 78.7982 19.0795 76.1952 12.6647C75.9289 12.0087 75.6903 11.4475 75.5 11.0288C74.8239 9.54135 72.9408 7.50519 69.3166 6.78996C67.4889 6.42927 65.6208 6.95003 64.0936 8.01698C61.2231 10.0225 57.5137 13.2365 56 15.5288" stroke="#222222" stroke-width="3"/>
<path d="M61.4417 36.0858V20.4424C61.4417 20.1606 61.3229 19.892 61.1144 19.7024L50.728 10.2601C50.5439 10.0927 50.3041 10 50.0553 10H34.3559C34.0907 10 33.8364 10.1054 33.6488 10.2929L0.58686 43.3549C0.491099 43.4506 0.414983 43.5647 0.367587 43.6916C-0.237203 45.3104 0.0219089 46.1153 0.311823 46.4039C0.387999 46.4797 0.480467 46.5387 0.556468 46.6147L24.2276 70.2859C24.3672 70.4255 24.5454 70.5227 24.7404 70.5537C26.5582 70.843 27.6253 70.3164 27.9417 70L61.1488 36.7929C61.3364 36.6054 61.4417 36.351 61.4417 36.0858Z" fill="#222222"/>
<circle cx="46.5" cy="24.5" r="8.5" fill="white"/>
</svg>
