<svg width="14" height="16" viewBox="0 0 14 16" fill="none" xmlns="http://www.w3.org/2000/svg">
    <path fill-rule="evenodd" clip-rule="evenodd" d="M12.1657 5.43706C12.1657 6.44184 12.4312 7.034 13.0156 7.71648C13.4585 8.21928 13.6 8.86464 13.6 9.5648C13.6 10.2642 13.3702 10.9281 12.9098 11.4671C12.3072 12.1134 11.4572 12.5258 10.5898 12.5976C9.33272 12.7047 8.07496 12.795 6.8004 12.795C5.52504 12.795 4.26804 12.741 3.011 12.5976C2.14277 12.5258 1.29282 12.1134 0.690936 11.4671C0.230576 10.9281 0 10.2642 0 9.5648C0 8.86464 0.14232 8.21928 0.584392 7.71648C1.18707 7.034 1.43514 6.44184 1.43514 5.43706V5.09624C1.43514 3.75067 1.77066 2.87082 2.4616 2.00949C3.48885 0.75336 5.13548 0 6.76464 0H6.83616C8.50032 0 10.2002 0.789616 11.21 2.09973C11.8651 2.94333 12.1657 3.78612 12.1657 5.09624V5.43706ZM4.45894 14.4486C4.45894 14.0458 4.82866 13.8613 5.17054 13.7823C5.57048 13.6978 8.00744 13.6978 8.40736 13.7823C8.74928 13.8613 9.11896 14.0458 9.11896 14.4486C9.09904 14.8322 8.87408 15.1722 8.5632 15.3882C8.16008 15.7024 7.68704 15.9014 7.19248 15.9731C6.91896 16.0086 6.65024 16.0094 6.38624 15.9731C5.89088 15.9014 5.41784 15.7024 5.0155 15.3874C4.70382 15.1722 4.47882 14.8322 4.45894 14.4486Z" fill="black"/>
</svg>
