<svg width="30" height="30" viewBox="0 0 30 30" fill="none" xmlns="http://www.w3.org/2000/svg">
    <circle cx="15" cy="15" r="15" fill="black" />
    <path fill-rule="evenodd" clip-rule="evenodd"
        d="M18.8846 13.4176C18.8846 14.234 19.1004 14.7151 19.5752 15.2696C19.935 15.6782 20.05 16.2025 20.05 16.7714C20.05 17.3396 19.8633 17.8791 19.4892 18.317C18.9996 18.8421 18.309 19.1772 17.6042 19.2355C16.5828 19.3226 15.5609 19.3959 14.5253 19.3959C13.4891 19.3959 12.4678 19.3521 11.4464 19.2355C10.741 19.1772 10.0504 18.8421 9.56139 18.317C9.18734 17.8791 9 17.3396 9 16.7714C9 16.2025 9.11564 15.6782 9.47482 15.2696C9.9645 14.7151 10.166 14.234 10.166 13.4176V13.1407C10.166 12.0474 10.4387 11.3325 11.0001 10.6327C11.8347 9.6121 13.1726 9 14.4963 9H14.5544C15.9065 9 17.2876 9.64156 18.1081 10.706C18.6404 11.3915 18.8846 12.0762 18.8846 13.1407V13.4176ZM12.6229 20.7395C12.6229 20.4122 12.9233 20.2623 13.2011 20.1981C13.526 20.1294 15.506 20.1294 15.831 20.1981C16.1088 20.2623 16.4092 20.4122 16.4092 20.7395C16.393 21.0511 16.2102 21.3274 15.9576 21.5029C15.6301 21.7582 15.2457 21.9199 14.8439 21.9782C14.6217 22.007 14.4033 22.0076 14.1888 21.9782C13.7863 21.9199 13.402 21.7582 13.0751 21.5022C12.8219 21.3274 12.639 21.0511 12.6229 20.7395Z"
        fill="white" />
</svg>
