<?xml version="1.0" standalone="no"?>
<!DOCTYPE svg PUBLIC "-//W3C//DTD SVG 20010904//EN"
 "http://www.w3.org/TR/2001/REC-SVG-20010904/DTD/svg10.dtd">
<svg version="1.0" xmlns="http://www.w3.org/2000/svg"
 width="512.000000pt" height="512.000000pt" viewBox="0 0 512.000000 512.000000"
 preserveAspectRatio="xMidYMid meet">

<g transform="translate(0.000000,512.000000) scale(0.100000,-0.100000)"
fill="#000000" stroke="none">
<path d="M2422 5110 c-278 -35 -515 -146 -710 -334 -196 -188 -321 -421 -367
-680 -19 -114 -19 -308 0 -422 31 -175 113 -371 214 -509 111 -151 287 -303
450 -385 114 -57 306 -113 421 -122 l35 -3 5 -1295 c4 -988 8 -1300 17 -1316
19 -34 67 -49 103 -34 17 7 36 22 43 34 9 16 13 328 17 1316 l5 1295 60 7
c146 16 316 72 451 150 110 63 160 100 253 191 426 413 494 1069 163 1572 -93
141 -268 301 -425 389 -207 115 -505 174 -735 146z m-223 -626 c146 -43 222
-225 152 -362 -26 -51 -99 -115 -149 -130 -177 -53 -342 69 -342 252 0 131
121 252 256 255 17 1 54 -6 83 -15z"/>
</g>
</svg>
